# xmcd CD database file generated by OrangeCD 6.1
#
# Track frame offsets:
#	150
#	10125
#	12638
#
# Disc length: 198 seconds
#
# Revision: 1
# Processed by: cddbd v1.5.2PL0 Copyright (c) Steve Scherf et al.
# Submitted via: OrangeCD 6.1
#
DISCID=1a00c403
DTITLE=Trisha Yearwood - Songs from the forthcoming album Jasper County
DYEAR=1900
DGENRE=Country
TTITLE0=It's Alright
TTITLE1=Georgia Rain
TTITLE2=Pistol
EXTD=
EXTT0=
EXTT1=
EXTT2=
PLAYORDER=
